<svg id="Capa_1" enable-background="new 0 0 512 512" height="512" viewBox="0 0 512 512" width="512" xmlns="http://www.w3.org/2000/svg"><g><path d="m429.75 273.58-33.09 223.42h-281.32l-33.09-223.42z" fill="#ff7b49"/><path d="m429.75 273.58-33.09 223.42h-140.66v-223.42z" fill="#fd435b"/><path d="m64.87 258.58 37.52 253.42h307.22l37.52-253.42zm63.41 223.42-28.64-193.42h53.93l14.59 193.42zm112.72 0h-42.75l-14.59-193.42h57.34zm72.75 0h-42.75v-193.42h57.34zm69.97 0h-39.88l14.59-193.42h53.93z" fill="#fd435b"/><path d="m256 258.58v253.42h153.61l37.52-253.42zm57.75 223.42h-42.75v-193.42h57.34zm69.97 0h-39.88l14.59-193.42h53.93z" fill="#ce0102"/><path d="m492.55 266.96c0 28.77-25.02 51.39-53.59 48.01-1.73-.21-3.58-.32-5.56-.32-29.56 0-29.56 24.54-59.13 24.54s-29.57-24.54-59.14-24.54-29.57 24.54-59.13 24.54c-29.57 0-29.57-24.54-59.14-24.54s-29.57 24.54-59.14 24.54c-29.56 0-29.56-24.54-59.13-24.54-1.98 0-3.82.11-5.55.32-28.57 3.38-53.59-19.24-53.59-48.01 0-26.68 21.63-48.31 48.31-48.31h376.48c13.34 0 25.42 5.41 34.16 14.15s14.15 20.82 14.15 34.16z" fill="#b46615"/><path d="m492.55 266.96c0 28.77-25.02 51.39-53.59 48.01-1.73-.21-3.58-.32-5.56-.32-29.56 0-29.56 24.54-59.13 24.54s-29.57-24.54-59.14-24.54-29.57 24.54-59.13 24.54v-120.54h188.24c13.34 0 25.42 5.41 34.16 14.15s14.15 20.82 14.15 34.16z" fill="#874208"/><path d="m297.15 0v30h-2.13c-13.25 0-24.02 10.77-24.02 24.02h-30c0-14.47 5.71-27.62 15-37.32 9.84-10.29 23.69-16.7 39.02-16.7z" fill="#682a00"/><path d="m302.05 79.3c0 19.92-12.65 36.89-30.35 43.31v20.27h-31.4v-20.27c-17.7-6.42-30.35-23.39-30.35-43.31 0-25.44 20.61-46.05 46.05-46.05s46.05 20.61 46.05 46.05z" fill="#ff7b49"/><path d="m302.05 79.3c0 19.92-12.65 36.89-30.35 43.31v20.27h-15.7v-109.63c25.44 0 46.05 20.61 46.05 46.05z" fill="#fd435b"/><path d="m433.44 179.86v.06c-.02 18.23-8.6 35.51-23.42 46.11-10.1 7.23-16.95 17.16-35.75 17.16-29.57 0-29.57-24.54-59.14-24.54s-29.57 24.54-59.13 24.54c-29.57 0-29.57-24.54-59.14-24.54s-29.57 24.54-59.14 24.54c-18.8 0-25.64-9.93-35.74-17.15-14.82-10.61-23.41-27.89-23.42-46.12v-.01c-.03-31.62 25.6-57.26 57.21-57.26h240.46c31.6 0 57.21 25.62 57.21 57.21z" fill="#fff9e1"/><path d="m315.13 218.65c-29.57 0-29.57 24.54-59.13 24.54v-120.54h120.23c31.6 0 57.21 25.62 57.21 57.21v.06c-.02 18.23-8.6 35.51-23.42 46.11-10.1 7.23-16.95 17.16-35.75 17.16-29.57 0-29.57-24.54-59.14-24.54z" fill="#ffdea8"/></g></svg>